<svg width="120" height="157" viewBox="0 0 120 157" fill="none" xmlns="http://www.w3.org/2000/svg">
<path fill-rule="evenodd" clip-rule="evenodd" d="M13.4999 49.5007C37.4999 -15.5 84.9999 -15.5 109.5 49.5007C123.5 90 123.874 107.994 108 134C92.1255 160.006 39.2125 167.797 13.4999 134C-2.75282 110.104 -3.62422 92.088 13.4999 49.5007ZM104.5 53C91.8114 9.48516 45.4354 -23.6893 17.5 53C5.16911 87.1396 2.10876 102.957 17.5 129C32.8912 155.043 82.0252 161.904 106 129C118.777 102.685 117.189 96.5148 104.5 53Z" fill="#B7D302"/>
<path fill-rule="evenodd" clip-rule="evenodd" d="M104.427 51.9047C91.7386 8.38989 45.3627 -24.7846 17.4273 51.9047C5.09639 86.0444 2.03604 101.862 17.4273 127.905C32.8185 153.947 81.9525 160.809 105.927 127.905C118.704 101.59 117.116 95.4196 104.427 51.9047ZM46.9273 86.9047L44.9273 91.4047C48.631 97.2298 51.2096 97.892 56.4273 95.9047C60.2608 92.9463 60.0194 89.4769 58.4273 82.4047C55.144 78.8771 52.5398 77.5229 46.9273 75.9047C46.7013 75.8078 46.4797 75.7131 46.2621 75.6201C41.5491 73.6054 38.7109 72.3922 33.4273 66.9047C-5.07272 110.905 58.4273 163.405 91.4273 114.905C98.5193 94.8942 96.7464 85.3417 79.4273 72.4047C64.0588 66.7151 58.1691 61.9631 50.4273 51.9047V56.9047C41.9273 51.9047 40.9273 41.4047 50.4273 35.9047C62.824 34.1038 67.0331 35.9311 71.9273 41.9047H68.9273V45.4047L71.9273 46.9047C72.2857 52.0181 71.4514 53.1439 67.4273 50.9047V47.4047L68.4273 46.4047L65.4273 41.9047L56.9273 49.9047C66.9579 58.726 72.9755 62.4581 84.9273 65.4047C83.9763 61.1381 84.0639 56.6061 84.1489 52.2127C84.4134 38.5325 84.6518 26.1967 53.4273 27.4047C36.8611 29.011 36.7219 48.5233 38.4273 56.9047C41.7315 62.6993 45.6845 64.2324 49.9585 65.8899C55.4816 68.0319 61.5405 70.3817 67.4273 82.4047L69.4273 79.4047L69.9273 82.9047C75.9273 79.4047 85.9273 102.405 69.9273 109.905C59.6728 114.497 54.9767 113.769 47.4273 109.905V104.905L42.4273 104.405C35.7671 96.0305 37.0914 92.0824 41.9273 85.4047V88.4047H44.9273V84.4047H46.9273V86.9047ZM91.4273 132.905C85.1204 134.227 100.927 111.905 104.427 116.405C105.071 123.329 97.7342 131.583 91.4273 132.905Z" fill="#509914"/>
<path d="M44.5105 91.0819L46.5105 86.5819V84.0819H44.5105V88.0819H41.5105V85.0819C36.6746 91.7596 35.3503 95.7077 42.0105 104.082L47.0105 104.582V109.582C54.5599 113.446 59.256 114.174 69.5105 109.582C85.5105 102.082 75.5105 79.0819 69.5105 82.5819L69.0105 79.0819L67.0105 82.0819C61.1237 70.0589 55.0648 67.7091 49.5416 65.5671C45.2677 63.9096 41.3147 62.3765 38.0105 56.5819C36.3051 48.2005 36.4443 28.6882 53.0105 27.0819C84.235 25.8739 83.9965 38.2097 83.7321 51.8899C83.6471 56.2833 83.5595 60.8153 84.5105 65.0819C72.5587 62.1353 66.5411 58.4032 56.5105 49.5819L65.0105 41.5819L68.0105 46.0819L67.0105 47.0819V50.5819C71.0346 52.8211 71.8689 51.6953 71.5105 46.5819L68.5105 45.0819V41.5819H71.5105C66.6163 35.6083 62.4072 33.781 50.0105 35.5819C40.5105 41.0819 41.5105 51.5819 50.0105 56.5819V51.5819C57.7523 61.6403 63.642 66.3923 79.0105 72.0819C96.3296 85.0189 98.1025 94.5714 91.0105 114.582C58.0105 163.082 -5.48953 110.582 33.0105 66.5819C38.2941 72.0694 41.1323 73.2826 45.8453 75.2973C46.0629 75.3903 46.2845 75.485 46.5105 75.5819C52.123 77.2001 54.7271 78.5543 58.0105 82.0819C59.6026 89.1541 59.844 92.6235 56.0105 95.5819C50.7927 97.5692 48.2142 96.907 44.5105 91.0819Z" fill="#DDFF0A"/>
</svg>
